<svg width="22" height="22" viewBox="0 0 22 22" fill="none" xmlns="http://www.w3.org/2000/svg">
<g id="vuesax/linear/calendar-add">
<g id="calendar-add">
<path id="Vector" d="M7.33325 1.83333V4.58333" stroke="#EBF8FF" stroke-width="1.5" stroke-miterlimit="10" stroke-linecap="round" stroke-linejoin="round"/>
<path id="Vector_2" d="M14.6667 1.83333V4.58333" stroke="#EBF8FF" stroke-width="1.5" stroke-miterlimit="10" stroke-linecap="round" stroke-linejoin="round"/>
<path id="Vector_3" d="M3.20825 8.33249H18.7916" stroke="#EBF8FF" stroke-width="1.5" stroke-miterlimit="10" stroke-linecap="round" stroke-linejoin="round"/>
<path id="Vector_4" d="M16.4999 21.0833C18.525 21.0833 20.1666 19.4417 20.1666 17.4167C20.1666 15.3916 18.525 13.75 16.4999 13.75C14.4749 13.75 12.8333 15.3916 12.8333 17.4167C12.8333 19.4417 14.4749 21.0833 16.4999 21.0833Z" stroke="#EBF8FF" stroke-width="1.5" stroke-miterlimit="10" stroke-linecap="round" stroke-linejoin="round"/>
<g id="Group">
<path id="Vector_5" d="M17.866 17.4625H15.1343" stroke="#EBF8FF" stroke-width="1.5" stroke-miterlimit="10" stroke-linecap="round" stroke-linejoin="round"/>
<path id="Vector_6" d="M16.5 16.1242V18.865" stroke="#EBF8FF" stroke-width="1.5" stroke-miterlimit="10" stroke-linecap="round" stroke-linejoin="round"/>
</g>
<path id="Vector_7" d="M19.25 7.79166V14.9966C18.5808 14.2358 17.6 13.75 16.5 13.75C14.4742 13.75 12.8333 15.3908 12.8333 17.4167C12.8333 18.1042 13.0258 18.755 13.365 19.305C13.5575 19.635 13.805 19.9283 14.0892 20.1667H7.33333C4.125 20.1667 2.75 18.3333 2.75 15.5833V7.79166C2.75 5.04166 4.125 3.20833 7.33333 3.20833H14.6667C17.875 3.20833 19.25 5.04166 19.25 7.79166Z" stroke="#EBF8FF" stroke-width="1.5" stroke-miterlimit="10" stroke-linecap="round" stroke-linejoin="round"/>
<path id="Vector_8" d="M10.9958 12.5583H11.004" stroke="#EBF8FF" stroke-width="2" stroke-linecap="round" stroke-linejoin="round"/>
<path id="Vector_9" d="M7.6032 12.5583H7.61143" stroke="#EBF8FF" stroke-width="2" stroke-linecap="round" stroke-linejoin="round"/>
<path id="Vector_10" d="M7.6032 15.3083H7.61143" stroke="#EBF8FF" stroke-width="2" stroke-linecap="round" stroke-linejoin="round"/>
</g>
</g>
</svg>
