<svg width="22" height="22" viewBox="0 0 22 22" fill="none" xmlns="http://www.w3.org/2000/svg">
<g id="vuesax/linear/car">
<g id="car">
<path id="Vector" d="M14.2176 2.59416H7.78258C5.50008 2.59416 4.99591 3.73083 4.70258 5.12416L3.66675 10.0833H18.3334L17.2976 5.12416C17.0042 3.73083 16.5001 2.59416 14.2176 2.59416Z" stroke="#EBF8FF" stroke-width="1.5" stroke-linecap="round" stroke-linejoin="round"/>
<path id="Vector_2" d="M20.1575 18.1683C20.2583 19.2408 19.3967 20.1667 18.2967 20.1667H16.5733C15.5833 20.1667 15.4458 19.745 15.2717 19.2225L15.0883 18.6725C14.8317 17.9208 14.6667 17.4167 13.3467 17.4167H8.65334C7.33334 17.4167 7.14084 17.985 6.91167 18.6725L6.72834 19.2225C6.55417 19.745 6.41667 20.1667 5.42667 20.1667H3.70334C2.60334 20.1667 1.74167 19.2408 1.8425 18.1683L2.35584 12.5858C2.48417 11.2108 2.75 10.0833 5.15167 10.0833H16.8483C19.25 10.0833 19.5158 11.2108 19.6442 12.5858L20.1575 18.1683Z" stroke="#EBF8FF" stroke-width="1.5" stroke-linecap="round" stroke-linejoin="round"/>
<path id="Vector_3" d="M3.66667 7.33333H2.75" stroke="#EBF8FF" stroke-width="1.5" stroke-linecap="round" stroke-linejoin="round"/>
<path id="Vector_4" d="M19.2499 7.33333H18.3333" stroke="#EBF8FF" stroke-width="1.5" stroke-linecap="round" stroke-linejoin="round"/>
<path id="Vector_5" d="M11 2.75V4.58333" stroke="#EBF8FF" stroke-width="1.5" stroke-linecap="round" stroke-linejoin="round"/>
<path id="Vector_6" d="M9.625 4.58333H12.375" stroke="#EBF8FF" stroke-width="1.5" stroke-linecap="round" stroke-linejoin="round"/>
<path id="Vector_7" d="M5.5 13.75H8.25" stroke="#EBF8FF" stroke-width="1.5" stroke-linecap="round" stroke-linejoin="round"/>
<path id="Vector_8" d="M13.75 13.75H16.5" stroke="#EBF8FF" stroke-width="1.5" stroke-linecap="round" stroke-linejoin="round"/>
</g>
</g>
</svg>
