<svg width="20" height="21" viewBox="0 0 20 21" fill="none" xmlns="http://www.w3.org/2000/svg">
<path fill-rule="evenodd" clip-rule="evenodd" d="M5.625 0C4.58947 0 3.75 0.839466 3.75 1.875V4.86564C3.3236 4.91799 2.8989 4.97583 2.47596 5.03912C1.02191 5.25668 0 6.52163 0 7.95569V14.25C0 15.9069 1.34315 17.25 3 17.25H3.26963L3.11461 18.9552C3.01479 20.0533 3.87935 21 4.98191 21H14.5181C15.6206 21 16.4852 20.0533 16.3854 18.9552L16.2304 17.25H16.5C18.1569 17.25 19.5 15.9069 19.5 14.25V7.95569C19.5 6.52163 18.4781 5.25668 17.024 5.03912C16.6011 4.97583 16.1764 4.91799 15.75 4.86564V1.875C15.75 0.839466 14.9105 0 13.875 0H5.625ZM14.25 4.70498V1.875C14.25 1.66789 14.0821 1.5 13.875 1.5H5.625C5.41789 1.5 5.25 1.66789 5.25 1.875V4.70498C6.73198 4.56931 8.23298 4.5 9.75 4.5C11.267 4.5 12.768 4.56931 14.25 4.70498ZM14.0334 12.9696C14.2107 12.9879 14.3496 13.1298 14.3658 13.3073L14.8915 19.091C14.9115 19.3107 14.7386 19.5 14.5181 19.5H4.98191C4.7614 19.5 4.58849 19.3107 4.60845 19.091L5.13425 13.3073C5.15039 13.1298 5.28926 12.9879 5.46659 12.9696C6.87438 12.8244 8.30338 12.75 9.75 12.75C11.1966 12.75 12.6256 12.8244 14.0334 12.9696ZM15 9C15 8.58579 15.3358 8.25 15.75 8.25H15.7575C16.1717 8.25 16.5075 8.58579 16.5075 9V9.0075C16.5075 9.42171 16.1717 9.7575 15.7575 9.7575H15.75C15.3358 9.7575 15 9.42171 15 9.0075V9ZM12.75 8.25C12.3358 8.25 12 8.58579 12 9V9.0075C12 9.42171 12.3358 9.7575 12.75 9.7575H12.7575C13.1717 9.7575 13.5075 9.42171 13.5075 9.0075V9C13.5075 8.58579 13.1717 8.25 12.7575 8.25H12.75Z" fill="#1A365D"/>
</svg>
