<svg width="22" height="22" viewBox="0 0 22 22" fill="none" xmlns="http://www.w3.org/2000/svg">
<g id="vuesax/linear/password-check">
<g id="password-check">
<path id="Vector" d="M10.1015 17.875H6.87484C6.3065 17.875 5.80234 17.8567 5.35317 17.7925C2.94234 17.5267 2.2915 16.39 2.2915 13.2917V8.70833C2.2915 5.61 2.94234 4.47333 5.35317 4.2075C5.80234 4.14333 6.3065 4.125 6.87484 4.125H10.0465" stroke="#8B909A" stroke-width="1.5" stroke-linecap="round" stroke-linejoin="round"/>
<path id="Vector_2" d="M13.7686 4.125H15.1252C15.6936 4.125 16.1977 4.14333 16.6469 4.2075C19.0577 4.47333 19.7086 5.61 19.7086 8.70833V13.2917C19.7086 16.39 19.0577 17.5267 16.6469 17.7925C16.1977 17.8567 15.6936 17.875 15.1252 17.875H13.7686" stroke="#8B909A" stroke-width="1.5" stroke-linecap="round" stroke-linejoin="round"/>
<path id="Vector_3" d="M13.75 1.8335V20.1668" stroke="#8B909A" stroke-width="1.5" stroke-linecap="round" stroke-linejoin="round"/>
<path id="Vector_4" d="M10.1701 10.9998H10.1783" stroke="#8B909A" stroke-width="2" stroke-linecap="round" stroke-linejoin="round"/>
<path id="Vector_5" d="M6.5031 10.9998H6.51134" stroke="#8B909A" stroke-width="2" stroke-linecap="round" stroke-linejoin="round"/>
</g>
</g>
</svg>
